<?xml version="1.0" standalone="no"?>
<!DOCTYPE svg PUBLIC "-//W3C//DTD SVG 20010904//EN"
 "http://www.w3.org/TR/2001/REC-SVG-20010904/DTD/svg10.dtd">
<svg version="1.0" xmlns="http://www.w3.org/2000/svg"
 width="916.000000pt" height="917.000000pt" viewBox="0 0 916.000000 917.000000"
 preserveAspectRatio="xMidYMid meet">

<g transform="translate(0.000000,917.000000) scale(0.100000,-0.100000)"
fill="#000000" stroke="none">
<path d="M1990 8839 c-471 -53 -926 -294 -1221 -648 -269 -321 -417 -682 -449
-1091 -14 -182 -14 -4832 0 -5024 18 -249 81 -484 189 -703 265 -537 749 -904
1352 -1025 l114 -23 2540 -3 c1813 -2 2569 0 2640 8 435 48 828 234 1130 535
304 302 482 664 547 1110 19 132 19 5088 0 5220 -69 473 -278 873 -612 1172
-296 264 -667 429 -1062 472 -119 13 -5054 13 -5168 0z m1145 -354 c33 -15 79
-48 103 -72 45 -45 102 -151 102 -190 0 -19 5 -23 35 -23 32 0 35 3 46 43 27
103 99 190 201 244 48 25 63 28 153 28 87 0 107 -3 157 -27 103 -48 179 -138
208 -246 11 -42 12 -43 48 -40 33 3 37 6 44 41 20 95 98 191 196 239 62 31 74
33 167 33 93 0 104 -2 160 -32 99 -52 179 -152 200 -250 6 -30 10 -33 44 -33
36 0 38 1 50 50 30 117 146 232 261 260 120 29 255 -4 347 -84 45 -39 113
-161 113 -202 0 -20 5 -24 33 -24 32 0 34 3 46 51 18 68 75 150 137 197 138
104 337 94 471 -22 45 -39 113 -161 113 -202 l0 -24 303 0 c166 0 341 -5 387
-10 419 -52 760 -342 887 -755 l27 -90 4 -376 3 -377 46 -11 c107 -27 198
-103 249 -206 26 -54 29 -70 29 -155 0 -82 -4 -103 -27 -152 -49 -105 -140
-181 -251 -209 -45 -11 -48 -13 -45 -42 3 -27 8 -32 48 -42 104 -27 200 -108
246 -208 25 -54 29 -74 29 -152 0 -78 -4 -98 -29 -152 -46 -100 -142 -181
-246 -208 -42 -10 -45 -14 -48 -46 -3 -35 -2 -35 48 -47 104 -24 199 -104 248
-210 23 -49 27 -70 27 -152 -1 -83 -4 -102 -28 -152 -50 -102 -152 -185 -254
-206 -35 -7 -38 -11 -41 -45 -3 -33 0 -37 25 -43 104 -23 188 -80 243 -165 91
-141 75 -328 -39 -452 -45 -49 -136 -102 -193 -112 -34 -6 -38 -11 -38 -36 0
-23 5 -30 28 -35 126 -27 220 -104 275 -224 16 -35 21 -66 21 -140 1 -83 -2
-102 -26 -152 -48 -104 -159 -194 -260 -213 l-38 -7 0 -345 c0 -364 -5 -420
-52 -558 -103 -299 -354 -546 -663 -652 -130 -44 -224 -53 -572 -53 -314 0
-323 -1 -323 -20 0 -40 -41 -127 -84 -176 -25 -29 -71 -65 -108 -85 -61 -33
-67 -34 -173 -34 -101 0 -114 2 -163 28 -98 51 -179 155 -197 250 -7 33 -10
37 -39 37 -29 0 -32 -3 -43 -51 -24 -98 -94 -183 -196 -237 -48 -25 -61 -27
-162 -27 -101 0 -114 2 -163 28 -98 51 -179 155 -197 250 -7 35 -9 37 -45 37
-37 0 -38 -1 -50 -51 -27 -111 -140 -227 -253 -259 -71 -19 -201 -9 -262 20
-97 47 -176 141 -201 239 -10 43 -13 46 -47 49 -35 3 -36 2 -47 -40 -31 -114
-123 -219 -225 -257 -76 -29 -194 -29 -270 0 -103 38 -207 159 -230 266 -6 29
-11 33 -38 33 -30 0 -33 -3 -44 -51 -24 -98 -94 -183 -196 -237 -48 -25 -61
-27 -162 -27 -101 0 -114 2 -163 28 -29 15 -70 44 -92 63 -42 38 -110 161
-110 199 l0 23 -362 4 c-352 4 -366 5 -459 30 -404 109 -703 432 -774 837 -11
62 -15 168 -15 411 l0 328 -33 6 c-139 27 -261 155 -288 303 -13 67 2 165 32
226 47 91 145 169 247 196 37 10 42 15 42 40 0 26 -5 30 -46 40 -188 47 -308
234 -274 424 15 78 40 127 98 189 49 53 109 88 180 108 42 11 43 12 40 47 -3
34 -6 37 -49 47 -65 17 -130 58 -182 116 -62 69 -90 143 -90 245 -1 70 3 89
30 146 17 37 47 84 67 106 40 45 132 98 189 108 35 7 37 9 37 45 0 36 -2 38
-38 44 -21 3 -61 17 -88 32 -181 95 -251 316 -158 500 47 92 155 176 246 190
35 6 38 9 38 39 0 31 -3 34 -50 45 -181 43 -303 236 -270 423 28 152 140 268
293 301 l27 6 0 329 c0 369 8 444 63 591 126 334 393 570 748 661 76 20 118
22 441 26 l356 5 7 36 c15 81 72 164 149 217 75 52 125 65 227 62 70 -2 96 -8
144 -32z"/>
<path d="M2907 8356 c-97 -36 -142 -102 -142 -207 0 -55 5 -73 30 -114 80
-130 271 -133 360 -6 27 39 30 50 30 121 0 71 -3 82 -30 122 -55 78 -165 115
-248 84z"/>
<path d="M3705 8354 c-77 -28 -145 -123 -145 -202 0 -53 25 -108 70 -153 196
-197 492 86 309 295 -61 69 -148 92 -234 60z"/>
<path d="M4522 8357 c-180 -66 -197 -314 -27 -400 140 -71 315 36 315 193 0
143 -156 254 -288 207z"/>
<path d="M5339 8357 c-60 -23 -96 -54 -123 -109 -34 -68 -34 -128 -1 -195 61
-122 209 -156 322 -74 121 88 108 286 -24 359 -52 29 -126 37 -174 19z"/>
<path d="M6139 8357 c-60 -23 -96 -54 -123 -109 -34 -68 -34 -128 -1 -195 61
-122 209 -156 322 -74 121 88 108 286 -24 359 -52 29 -126 37 -174 19z"/>
<path d="M1861 8085 c-273 -60 -508 -229 -642 -463 -53 -92 -105 -243 -118
-345 -6 -43 -11 -215 -11 -383 l0 -304 28 -6 c115 -25 210 -100 260 -205 l27
-58 298 0 297 -1 0 -100 0 -100 -297 0 -298 0 -18 -44 c-42 -103 -143 -191
-247 -216 -47 -11 -50 -14 -50 -45 0 -30 3 -33 37 -38 97 -16 209 -107 255
-208 l23 -49 297 0 298 0 0 -100 0 -100 -295 0 -294 0 -25 -53 c-50 -105 -144
-186 -245 -210 -50 -11 -51 -13 -51 -48 0 -34 2 -37 37 -44 98 -18 194 -93
245 -190 l33 -65 298 0 297 0 0 -100 0 -100 -298 0 -297 0 -18 -49 c-33 -93
-144 -191 -246 -217 -43 -10 -46 -13 -49 -47 -3 -35 -2 -36 40 -47 108 -30
215 -120 254 -214 l19 -46 298 0 297 0 0 -100 0 -100 -297 0 -298 0 -18 -45
c-43 -103 -132 -182 -239 -212 -53 -15 -58 -19 -58 -44 0 -25 5 -30 42 -40
108 -29 215 -119 254 -213 l19 -46 298 0 297 0 0 -100 0 -100 -297 0 -298 0
-24 -56 c-43 -100 -155 -190 -258 -210 l-33 -6 0 -303 c0 -167 5 -339 11 -381
54 -388 331 -698 715 -801 98 -26 104 -26 443 -27 l343 -1 18 57 c9 31 27 72
39 91 32 52 106 116 167 144 l54 24 0 295 0 295 98 -3 97 -3 3 -295 2 -295 45
-19 c93 -38 184 -144 209 -244 11 -42 15 -47 43 -50 29 -3 31 0 42 44 27 107
103 200 204 247 l57 28 0 295 0 295 98 -3 97 -3 3 -296 2 -296 38 -12 c93 -28
197 -146 222 -251 11 -48 14 -50 45 -50 32 0 34 2 50 57 20 69 73 152 121 188
19 14 59 38 89 51 l55 25 0 295 0 294 100 0 100 0 0 -298 0 -297 48 -22 c99
-46 189 -156 207 -255 7 -36 9 -38 45 -38 35 0 38 2 43 37 16 97 116 220 211
259 l46 19 2 295 3 295 98 3 97 3 0 -295 0 -295 54 -24 c101 -46 186 -146 212
-246 10 -41 15 -46 41 -49 28 -3 31 0 36 36 16 96 102 203 205 254 l62 31 0
294 0 294 98 -3 97 -3 3 -295 2 -295 45 -19 c93 -38 185 -146 211 -245 l11
-46 279 -3 c408 -4 537 16 721 113 240 127 396 318 480 592 27 88 27 90 31
449 l3 361 -48 12 c-26 7 -66 23 -88 36 -58 33 -133 117 -157 175 l-21 50
-293 0 -294 0 0 100 0 100 293 0 293 0 27 55 c50 102 137 175 236 201 41 10
46 15 49 42 3 27 0 31 -30 37 -100 21 -208 109 -255 207 l-27 58 -293 0 -293
0 0 100 0 100 293 0 293 0 27 55 c50 102 137 175 236 201 44 11 46 13 49 50
l3 39 -52 12 c-103 25 -198 108 -240 209 l-23 54 -293 0 -293 0 0 100 0 100
295 0 295 0 15 35 c41 99 145 190 245 216 49 13 50 13 50 51 0 33 -3 38 -22
38 -42 0 -148 59 -197 109 -28 29 -59 74 -72 105 l-23 56 -293 0 -293 0 0 100
0 100 294 0 295 0 24 54 c14 30 46 76 72 101 47 47 153 105 193 105 18 0 22 5
22 34 0 31 -4 35 -32 41 -102 22 -213 114 -258 213 l-24 52 -293 0 -293 0 0
100 0 100 293 0 293 0 27 55 c50 102 139 176 245 205 l44 11 -4 362 c-4 362
-4 362 -32 452 -103 337 -346 574 -686 670 -57 16 -113 19 -432 23 l-368 3 0
-23 c0 -41 -58 -147 -105 -192 -25 -25 -70 -56 -100 -71 l-55 -25 -2 -298 -3
-297 -97 -3 -98 -3 0 300 0 300 -60 27 c-78 35 -160 121 -189 199 -12 31 -21
62 -21 70 0 10 -11 15 -35 15 -30 0 -35 -3 -35 -22 0 -41 -58 -147 -105 -193
-26 -25 -73 -57 -106 -72 l-59 -27 0 -298 0 -299 -97 3 -98 3 -3 300 -3 300
-54 24 c-72 31 -156 120 -184 196 -12 31 -21 62 -21 70 0 11 -11 15 -39 15
-36 0 -40 -3 -46 -32 -21 -98 -119 -217 -210 -254 l-45 -19 -2 -300 -3 -300
-97 -3 -98 -3 0 299 0 298 -56 23 c-97 41 -193 155 -213 255 -6 27 -11 31 -43
34 -36 3 -37 2 -49 -40 -28 -105 -97 -190 -193 -238 l-61 -31 -5 -297 -5 -297
-97 -3 -98 -3 0 300 0 300 -54 24 c-100 46 -177 138 -205 245 -11 39 -14 42
-46 42 -30 0 -35 -4 -35 -22 0 -40 -56 -142 -104 -190 -25 -26 -71 -58 -101
-73 l-55 -25 -2 -298 -3 -297 -97 -3 -98 -3 0 299 0 298 -60 29 c-100 48 -190
156 -205 247 l-7 38 -341 -1 c-252 0 -359 -4 -406 -14z m1207 -1312 l-3 -168
-132 -3 -133 -3 0 171 0 170 135 0 135 0 -2 -167z m420 0 l-3 -168 -132 -3
-133 -3 0 171 0 170 135 0 135 0 -2 -167z m402 -3 l0 -171 -132 3 -133 3 -3
168 -2 167 135 0 135 0 0 -170z m428 3 l-3 -168 -132 -3 -133 -3 0 171 0 170
135 0 135 0 -2 -167z m402 -3 l0 -171 -132 3 -133 3 -3 168 -2 167 135 0 135
0 0 -170z m420 0 l0 -171 -132 3 -133 3 -3 168 -2 167 135 0 135 0 0 -170z
m408 3 l-3 -168 -132 -3 -133 -3 0 171 0 170 135 0 135 0 -2 -167z m422 -3 l0
-171 -132 3 -133 3 -3 168 -2 167 135 0 135 0 0 -170z m410 0 l0 -171 -132 3
-133 3 -3 168 -2 167 135 0 135 0 0 -170z m-3810 -505 l0 -135 -170 0 -170 0
0 128 c0 71 3 132 7 135 3 4 80 7 170 7 l163 0 0 -135z m3810 -1660 l0 -1795
-1790 0 -1790 0 0 1795 0 1795 1790 0 1790 0 0 -1795z m570 1660 l0 -135 -170
0 -170 0 0 128 c0 71 3 132 7 135 3 4 80 7 170 7 l163 0 0 -135z m-4380 -420
l0 -135 -170 0 -170 0 0 128 c0 71 3 132 7 135 3 4 80 7 170 7 l163 0 0 -135z
m4380 0 l0 -135 -170 0 -170 0 0 128 c0 71 3 132 7 135 3 4 80 7 170 7 l163 0
0 -135z m-4380 -410 l0 -135 -167 2 -168 3 -3 133 -3 132 171 0 170 0 0 -135z
m4380 0 l0 -135 -167 2 -168 3 -3 133 -3 132 171 0 170 0 0 -135z m-4380 -420
l0 -135 -170 0 -170 0 0 128 c0 71 3 132 7 135 3 4 80 7 170 7 l163 0 0 -135z
m4380 0 l0 -135 -170 0 -170 0 0 128 c0 71 3 132 7 135 3 4 80 7 170 7 l163 0
0 -135z m-4380 -410 l0 -135 -167 2 -168 3 -3 119 c-1 66 0 126 2 133 4 10 44
13 171 13 l165 0 0 -135z m4380 0 l0 -135 -167 2 -168 3 -3 119 c-1 66 0 126
2 133 4 10 44 13 171 13 l165 0 0 -135z m-4380 -420 l0 -135 -167 2 -168 3 -3
133 -3 132 171 0 170 0 0 -135z m4380 0 l0 -135 -167 2 -168 3 -3 133 -3 132
171 0 170 0 0 -135z m-4380 -400 l0 -135 -170 0 -170 0 0 128 c0 71 3 132 7
135 3 4 80 7 170 7 l163 0 0 -135z m4380 0 l0 -135 -170 0 -170 0 0 128 c0 71
3 132 7 135 3 4 80 7 170 7 l163 0 0 -135z m-4380 -430 l0 -135 -167 2 -168 3
-3 133 -3 132 171 0 170 0 0 -135z m4380 0 l0 -135 -167 2 -168 3 -3 133 -3
132 171 0 170 0 0 -135z m-4380 -410 l0 -135 -167 2 -168 3 -3 119 c-1 66 0
126 2 133 4 10 44 13 171 13 l165 0 0 -135z m4380 0 l0 -135 -167 2 -168 3 -3
119 c-1 66 0 126 2 133 4 10 44 13 171 13 l165 0 0 -135z m-3882 -512 l-3
-168 -132 -3 -133 -3 0 171 0 170 135 0 135 0 -2 -167z m420 0 l-3 -168 -132
-3 -133 -3 0 171 0 170 135 0 135 0 -2 -167z m402 -3 l0 -171 -132 3 -133 3
-3 168 -2 167 135 0 135 0 0 -170z m428 3 l-3 -168 -132 -3 -133 -3 0 171 0
170 135 0 135 0 -2 -167z m402 -3 l0 -171 -132 3 -133 3 -3 168 -2 167 135 0
135 0 0 -170z m420 0 l0 -171 -132 3 -133 3 -3 168 -2 167 135 0 135 0 0 -170z
m408 3 l-3 -168 -132 -3 -133 -3 0 171 0 170 135 0 135 0 -2 -167z m422 -3 l0
-171 -132 3 -133 3 -3 168 -2 167 135 0 135 0 0 -170z m410 0 l0 -171 -132 3
-133 3 -3 168 -2 167 135 0 135 0 0 -170z"/>
<path d="M3040 4605 l0 -1545 1550 0 1550 0 0 1545 0 1545 -1550 0 -1550 0 0
-1545z m2690 0 l0 -1145 -1140 0 -1140 0 0 1145 0 1145 1140 0 1140 0 0 -1145z"/>
<path d="M978 6424 c-55 -17 -111 -68 -134 -122 -25 -59 -15 -151 22 -204 65
-94 190 -122 287 -65 161 95 134 339 -44 391 -63 19 -70 19 -131 0z"/>
<path d="M8078 6429 c-81 -23 -158 -124 -158 -208 0 -113 108 -221 219 -221
114 0 215 103 215 220 -2 144 -138 247 -276 209z"/>
<path d="M955 5611 c-208 -96 -139 -411 90 -411 233 0 298 325 83 414 -50 21
-124 20 -173 -3z"/>
<path d="M8060 5619 c-76 -31 -140 -123 -140 -205 0 -59 45 -142 97 -178 63
-43 144 -48 217 -12 160 78 162 301 3 381 -54 27 -130 33 -177 14z"/>
<path d="M972 4807 c-85 -31 -142 -111 -142 -202 0 -66 27 -123 80 -167 138
-119 350 -17 350 169 0 144 -151 249 -288 200z"/>
<path d="M8041 4794 c-126 -63 -157 -224 -65 -332 87 -102 257 -97 334 10 66
90 59 206 -17 280 -75 73 -161 87 -252 42z"/>
<path d="M984 3996 c-61 -19 -102 -54 -130 -113 -36 -72 -31 -154 12 -216 36
-52 119 -97 179 -97 60 0 143 45 179 97 80 116 19 288 -117 328 -60 18 -69 18
-123 1z"/>
<path d="M8090 4001 c-82 -26 -139 -82 -159 -154 -46 -161 105 -312 266 -266
188 52 213 313 38 402 -38 19 -112 28 -145 18z"/>
<path d="M984 3196 c-61 -19 -102 -54 -130 -113 -36 -72 -31 -154 12 -216 36
-52 119 -97 179 -97 60 0 143 45 179 97 80 116 19 288 -117 328 -60 18 -69 18
-123 1z"/>
<path d="M8095 3201 c-149 -37 -220 -203 -138 -328 78 -122 247 -135 341 -28
109 124 57 303 -100 350 -56 16 -59 16 -103 6z"/>
<path d="M2940 1270 c-142 -25 -223 -185 -157 -310 83 -157 305 -157 385 0 78
155 -58 340 -228 310z"/>
<path d="M3727 1266 c-82 -22 -136 -77 -158 -159 -45 -166 139 -320 296 -248
153 69 177 274 44 370 -22 17 -55 33 -72 36 -18 4 -39 8 -47 10 -8 2 -37 -2
-63 -9z"/>
<path d="M4539 1266 c-84 -22 -135 -75 -159 -165 -35 -132 89 -272 229 -259
135 13 227 144 191 273 -31 110 -151 180 -261 151z"/>
<path d="M5370 1270 c-174 -33 -240 -241 -117 -364 139 -139 366 -44 367 153
0 132 -122 236 -250 211z"/>
<path d="M6170 1270 c-174 -34 -239 -241 -115 -365 137 -137 364 -42 365 153
0 67 -18 109 -65 155 -50 48 -120 70 -185 57z"/>
</g>
</svg>
